STARTFONT 2.3
FONT -FontForge-Syncopate-Book-R-Normal--9-90-72-72-P-67-ISO10646-1
SIZE 9 72 72  4
FONTBOUNDINGBOX 17 12 -2 -3
COMMENT "Generated by fontforge, http://fontforge.sourceforge.net"
COMMENT "Copyright (c) 2010 by Brian J. Bonislawsky DBA Astigmatic (AOETI). All rights reserved. Available under the Apache 2.0 licence.http://www.apache.org/licenses/LICENSE-2.0.html"
STARTPROPERTIES 40
FOUNDRY "FontForge"
FAMILY_NAME "Syncopate"
WEIGHT_NAME "Book"
SLANT "R"
SETWIDTH_NAME "Normal"
ADD_STYLE_NAME ""
PIXEL_SIZE 9
POINT_SIZE 90
RESOLUTION_X 72
RESOLUTION_Y 72
SPACING "P"
AVERAGE_WIDTH 67
CHARSET_REGISTRY "ISO10646"
CHARSET_ENCODING "1"
FONTNAME_REGISTRY ""
CHARSET_COLLECTIONS "ISO8859-2 ISO8859-9 ISO8859-4 ISO10646-1"
BITS_PER_PIXEL 4
FONT_NAME "Syncopate-Regular"
FACE_NAME "Syncopate Regular"
COPYRIGHT "Copyright (c) 2010 by Brian J. Bonislawsky DBA Astigmatic (AOETI). All rights reserved. Available under the Apache 2.0 licence.http://www.apache.org/licenses/LICENSE-2.0.html"
FONT_VERSION "001.001"
FONT_ASCENT 7
FONT_DESCENT 2
UNDERLINE_POSITION -1
UNDERLINE_THICKNESS 1
X_HEIGHT 5
CAP_HEIGHT 5
RAW_ASCENT 799
RAW_DESCENT 200
NORM_SPACE 3
RELATIVE_WEIGHT 40
RELATIVE_SETWIDTH 70
SUPERSCRIPT_X 0
SUPERSCRIPT_Y 2
SUPERSCRIPT_SIZE 1
SUBSCRIPT_X 0
SUBSCRIPT_Y 2
SUBSCRIPT_SIZE 1
AVG_LOWERCASE_WIDTH 76
AVG_UPPERCASE_WIDTH 73
ENDPROPERTIES
CHARS 370
STARTCHAR space
ENCODING 32
SWIDTH 375 0
DWIDTH 3 0
BBX 1 1 0 0
BITMAP
00
ENDCHAR
STARTCHAR exclam
ENCODING 33
SWIDTH 274 0
DWIDTH 2 0
BBX 2 6 0 0
BITMAP
19
18
07
06
00
19
ENDCHAR
STARTCHAR quotedbl
ENCODING 34
SWIDTH 290 0
DWIDTH 3 0
BBX 3 2 0 4
BITMAP
9540
7430
ENDCHAR
STARTCHAR numbersign
ENCODING 35
SWIDTH 701 0
DWIDTH 6 0
BBX 6 6 0 0
BITMAP
007061
007070
1FFFFD
034060
8FFFF5
070610
ENDCHAR
STARTCHAR dollar
ENCODING 36
SWIDTH 767 0
DWIDTH 7 0
BBX 7 8 0 -1
BITMAP
00070000
08EFFB00
38170000
1B891000
016CC800
00071920
4FFFD800
00070000
ENDCHAR
STARTCHAR percent
ENCODING 37
SWIDTH 992 0
DWIDTH 9 0
BBX 9 6 0 0
BITMAP
2DE6017000
731A080000
2DE6710000
00064BE900
0045471A10
02701BE900
ENDCHAR
STARTCHAR ampersand
ENCODING 38
SWIDTH 926 0
DWIDTH 8 0
BBX 8 6 0 0
BITMAP
01CFD300
04505300
00A72000
17283044
48105680
08EFD883
ENDCHAR
STARTCHAR quotesingle
ENCODING 39
SWIDTH 140 0
DWIDTH 1 0
BBX 1 2 0 4
BITMAP
90
70
ENDCHAR
STARTCHAR parenleft
ENCODING 40
SWIDTH 420 0
DWIDTH 4 0
BBX 3 8 0 -1
BITMAP
0180
0910
1800
3500
3500
1800
0910
0180
ENDCHAR
STARTCHAR parenright
ENCODING 41
SWIDTH 420 0
DWIDTH 4 0
BBX 2 8 1 -1
BITMAP
80
36
09
08
08
09
36
80
ENDCHAR
STARTCHAR asterisk
ENCODING 42
SWIDTH 503 0
DWIDTH 5 0
BBX 4 4 0 2
BITMAP
1071
28A6
27A6
1071
ENDCHAR
STARTCHAR plus
ENCODING 43
SWIDTH 634 0
DWIDTH 6 0
BBX 5 5 0 1
BITMAP
006100
006100
4FFFE0
006100
006100
ENDCHAR
STARTCHAR comma
ENCODING 44
SWIDTH 185 0
DWIDTH 2 0
BBX 2 2 0 -1
BITMAP
82
90
ENDCHAR
STARTCHAR hyphen
ENCODING 45
SWIDTH 540 0
DWIDTH 5 0
BBX 5 1 0 3
BITMAP
4FFF20
ENDCHAR
STARTCHAR period
ENCODING 46
SWIDTH 185 0
DWIDTH 2 0
BBX 2 1 0 0
BITMAP
83
ENDCHAR
STARTCHAR slash
ENCODING 47
SWIDTH 500 0
DWIDTH 5 0
BBX 4 6 0 0
BITMAP
0008
0044
0080
0440
0800
4400
ENDCHAR
STARTCHAR zero
ENCODING 48
SWIDTH 833 0
DWIDTH 8 0
BBX 7 6 0 0
BITMAP
03BED800
1C412880
63000090
63000090
1C401780
03BFE800
ENDCHAR
STARTCHAR one
ENCODING 49
SWIDTH 339 0
DWIDTH 3 0
BBX 2 6 0 0
BITMAP
FF
08
08
08
08
08
ENDCHAR
STARTCHAR two
ENCODING 50
SWIDTH 728 0
DWIDTH 7 0
BBX 6 6 0 0
BITMAP
8FFEB2
00014A
000007
000261
035300
8FFFFF
ENDCHAR
STARTCHAR three
ENCODING 51
SWIDTH 726 0
DWIDTH 7 0
BBX 6 6 0 0
BITMAP
8FFEC3
000158
00DFA1
000149
00014A
AFFEB2
ENDCHAR
STARTCHAR four
ENCODING 52
SWIDTH 769 0
DWIDTH 7 0
BBX 7 6 0 0
BITMAP
0007C200
01937200
38107200
BFFFFFA0
00007200
00007200
ENDCHAR
STARTCHAR five
ENCODING 53
SWIDTH 738 0
DWIDTH 7 0
BBX 6 6 0 0
BITMAP
3FFFF9
350000
3EFEC4
00013B
00003B
7FFEC4
ENDCHAR
STARTCHAR six
ENCODING 54
SWIDTH 772 0
DWIDTH 7 0
BBX 7 6 0 0
BITMAP
02BEFF00
1A310000
57BEE910
59201570
2A201670
04CEE900
ENDCHAR
STARTCHAR seven
ENCODING 55
SWIDTH 669 0
DWIDTH 6 0
BBX 6 6 0 0
BITMAP
FFFFFB
000053
000260
000800
006300
037000
ENDCHAR
STARTCHAR eight
ENCODING 56
SWIDTH 793 0
DWIDTH 7 0
BBX 7 6 0 0
BITMAP
07DFE900
0B312A20
03DFE400
38313850
76101580
19DFE910
ENDCHAR
STARTCHAR nine
ENCODING 57
SWIDTH 776 0
DWIDTH 7 0
BBX 7 6 0 0
BITMAP
09EEC400
75102A20
75102950
1AEEC840
00003B10
1FFEB200
ENDCHAR
STARTCHAR colon
ENCODING 58
SWIDTH 245 0
DWIDTH 2 0
BBX 2 4 0 0
BITMAP
47
00
00
47
ENDCHAR
STARTCHAR semicolon
ENCODING 59
SWIDTH 234 0
DWIDTH 2 0
BBX 2 5 0 -1
BITMAP
47
00
00
55
81
ENDCHAR
STARTCHAR less
ENCODING 60
SWIDTH 634 0
DWIDTH 6 0
BBX 5 5 0 1
BITMAP
0005B0
06C930
5C2000
06C930
0005B0
ENDCHAR
STARTCHAR equal
ENCODING 61
SWIDTH 634 0
DWIDTH 6 0
BBX 5 3 0 2
BITMAP
4FFFE0
000000
4FFFE0
ENDCHAR
STARTCHAR greater
ENCODING 62
SWIDTH 634 0
DWIDTH 6 0
BBX 5 5 0 1
BITMAP
4A3000
05BB40
0004E0
05BB40
4A3000
ENDCHAR
STARTCHAR question
ENCODING 63
SWIDTH 568 0
DWIDTH 5 0
BBX 5 6 0 0
BITMAP
7FFB10
000560
049A10
093000
000000
091000
ENDCHAR
STARTCHAR at
ENCODING 64
SWIDTH 1016 0
DWIDTH 9 0
BBX 9 6 0 0
BITMAP
006CEEB400
0983013930
371BFE3660
462DFCFB10
1C61000000
029DFD8000
ENDCHAR
STARTCHAR A
ENCODING 65
SWIDTH 812 0
DWIDTH 7 0
BBX 7 6 0 0
BITMAP
000D4000
0075A000
01906400
07200A00
1EFFFF50
830001A0
ENDCHAR
STARTCHAR B
ENCODING 66
SWIDTH 836 0
DWIDTH 8 0
BBX 6 6 1 0
BITMAP
FFFFD3
800037
FFFFE3
80002A
80001B
FFFFE6
ENDCHAR
STARTCHAR C
ENCODING 67
SWIDTH 869 0
DWIDTH 8 0
BBX 8 6 0 0
BITMAP
02AEFFF3
1C510000
54000000
54000000
1C510000
02AEFFF3
ENDCHAR
STARTCHAR D
ENCODING 68
SWIDTH 910 0
DWIDTH 8 0
BBX 7 6 1 0
BITMAP
FFFEC500
80002A40
80000180
80000180
80003A40
FFFFD600
ENDCHAR
STARTCHAR E
ENCODING 69
SWIDTH 754 0
DWIDTH 7 0
BBX 6 6 1 0
BITMAP
FFFFF1
900000
FFFFC0
900000
900000
FFFFF2
ENDCHAR
STARTCHAR F
ENCODING 70
SWIDTH 687 0
DWIDTH 6 0
BBX 5 6 1 0
BITMAP
FFFFC0
800000
800000
FFFF90
800000
800000
ENDCHAR
STARTCHAR G
ENCODING 71
SWIDTH 910 0
DWIDTH 8 0
BBX 8 6 0 0
BITMAP
029DFFF5
1C620000
54000000
54008FF7
1C620037
029DFEC4
ENDCHAR
STARTCHAR H
ENCODING 72
SWIDTH 949 0
DWIDTH 9 0
BBX 7 6 1 0
BITMAP
80000080
80000080
FFFFFF80
80000080
80000080
80000080
ENDCHAR
STARTCHAR I
ENCODING 73
SWIDTH 287 0
DWIDTH 3 0
BBX 1 6 1 0
BITMAP
80
80
80
80
80
80
ENDCHAR
STARTCHAR J
ENCODING 74
SWIDTH 590 0
DWIDTH 5 0
BBX 5 6 0 0
BITMAP
000350
000350
000350
000350
001930
FFE800
ENDCHAR
STARTCHAR K
ENCODING 75
SWIDTH 806 0
DWIDTH 7 0
BBX 6 6 1 0
BITMAP
800173
805700
A93000
976000
803920
800176
ENDCHAR
STARTCHAR L
ENCODING 76
SWIDTH 701 0
DWIDTH 6 0
BBX 5 6 1 0
BITMAP
800000
800000
800000
800000
800000
FFFFF0
ENDCHAR
STARTCHAR M
ENCODING 77
SWIDTH 1139 0
DWIDTH 10 0
BBX 9 6 1 0
BITMAP
D100000A40
A800005940
8640018540
8090081540
8027450540
8006900540
ENDCHAR
STARTCHAR N
ENCODING 78
SWIDTH 936 0
DWIDTH 8 0
BBX 7 6 1 0
BITMAP
D3000260
89300260
80930260
80093260
80009460
80000960
ENDCHAR
STARTCHAR O
ENCODING 79
SWIDTH 983 0
DWIDTH 9 0
BBX 9 6 0 0
BITMAP
02AEFD8100
1C51026B00
5400000730
5400000730
1B51016B00
02ADFD9100
ENDCHAR
STARTCHAR P
ENCODING 80
SWIDTH 818 0
DWIDTH 7 0
BBX 6 6 1 0
BITMAP
FFFFC4
80002A
80002A
FFFFC4
800000
800000
ENDCHAR
STARTCHAR Q
ENCODING 81
SWIDTH 983 0
DWIDTH 9 0
BBX 9 6 0 0
BITMAP
02AEFD8100
1C51026B00
5400000730
5400000730
1B510C8B00
02ADFD9A90
ENDCHAR
STARTCHAR R
ENCODING 82
SWIDTH 833 0
DWIDTH 8 0
BBX 6 6 1 0
BITMAP
FFFEC3
800148
FFFFC3
800270
800073
800009
ENDCHAR
STARTCHAR S
ENCODING 83
SWIDTH 787 0
DWIDTH 7 0
BBX 7 6 0 0
BITMAP
09EFFD00
38100000
07CA6100
00025A20
00001750
4FFFE900
ENDCHAR
STARTCHAR T
ENCODING 84
SWIDTH 708 0
DWIDTH 6 0
BBX 7 6 0 0
BITMAP
CFFFFF30
00170000
00170000
00170000
00170000
00170000
ENDCHAR
STARTCHAR U
ENCODING 85
SWIDTH 891 0
DWIDTH 8 0
BBX 7 6 1 0
BITMAP
80000710
80000710
80000710
80000810
C4114C00
4CEEC400
ENDCHAR
STARTCHAR V
ENCODING 86
SWIDTH 817 0
DWIDTH 7 0
BBX 7 6 0 0
BITMAP
72000090
19000450
08300A00
01A06500
0085B000
001E5000
ENDCHAR
STARTCHAR W
ENCODING 87
SWIDTH 1266 0
DWIDTH 11 0
BBX 11 6 0 0
BITMAP
72000C400090
180045800270
090080810810
045180260800
009620095400
007A0006B000
ENDCHAR
STARTCHAR X
ENCODING 88
SWIDTH 821 0
DWIDTH 7 0
BBX 7 6 0 0
BITMAP
29000560
02804600
002A6000
00488000
03703700
38000370
ENDCHAR
STARTCHAR Y
ENCODING 89
SWIDTH 763 0
DWIDTH 7 0
BBX 7 6 0 0
BITMAP
47000830
07608500
009A7000
000A0000
00080000
00080000
ENDCHAR
STARTCHAR Z
ENCODING 90
SWIDTH 728 0
DWIDTH 7 0
BBX 6 6 0 0
BITMAP
4FFFFC
000051
000510
004100
041000
4FFFFF
ENDCHAR
STARTCHAR bracketleft
ENCODING 91
SWIDTH 409 0
DWIDTH 4 0
BBX 3 8 1 -1
BITMAP
DF40
8000
8000
8000
8000
8000
8000
DF40
ENDCHAR
STARTCHAR backslash
ENCODING 92
SWIDTH 500 0
DWIDTH 5 0
BBX 4 6 0 0
BITMAP
4400
0800
0440
0080
0044
0008
ENDCHAR
STARTCHAR bracketright
ENCODING 93
SWIDTH 409 0
DWIDTH 4 0
BBX 3 8 0 -1
BITMAP
8F80
0080
0080
0080
0080
0080
0080
8F80
ENDCHAR
STARTCHAR asciicircum
ENCODING 94
SWIDTH 459 0
DWIDTH 4 0
BBX 4 3 0 3
BITMAP
0790
1982
7218
ENDCHAR
STARTCHAR underscore
ENCODING 95
SWIDTH 500 0
DWIDTH 5 0
BBX 5 1 0 -2
BITMAP
FFFF80
ENDCHAR
STARTCHAR grave
ENCODING 96
SWIDTH 527 0
DWIDTH 5 0
BBX 3 2 0 5
BITMAP
1910
0380
ENDCHAR
STARTCHAR a
ENCODING 97
SWIDTH 888 0
DWIDTH 8 0
BBX 7 6 0 0
BITMAP
0DFFEB30
00000290
017ACEF0
2A632180
661026D0
1AEFD9A0
ENDCHAR
STARTCHAR b
ENCODING 98
SWIDTH 836 0
DWIDTH 8 0
BBX 6 6 1 0
BITMAP
FFFFD3
800037
FFFFE3
80002A
80001B
FFFFE6
ENDCHAR
STARTCHAR c
ENCODING 99
SWIDTH 869 0
DWIDTH 8 0
BBX 8 6 0 0
BITMAP
02AEFFF3
1C510000
54000000
54000000
1C510000
02AEFFF3
ENDCHAR
STARTCHAR d
ENCODING 100
SWIDTH 910 0
DWIDTH 8 0
BBX 7 6 1 0
BITMAP
FFFEC500
80002A40
80000180
80000180
80003A40
FFFFD600
ENDCHAR
STARTCHAR e
ENCODING 101
SWIDTH 910 0
DWIDTH 8 0
BBX 8 6 0 0
BITMAP
02AEEC50
18310263
5FFFFFF8
55000000
1C620000
029DFFF2
ENDCHAR
STARTCHAR f
ENCODING 102
SWIDTH 817 0
DWIDTH 7 0
BBX 6 6 1 0
BITMAP
4CEFFC
C31000
800000
FFFFFB
800000
800000
ENDCHAR
STARTCHAR g
ENCODING 103
SWIDTH 910 0
DWIDTH 8 0
BBX 8 6 0 0
BITMAP
029DFFF5
1C620000
54000000
54008FF7
1C620037
029DFEC4
ENDCHAR
STARTCHAR h
ENCODING 104
SWIDTH 949 0
DWIDTH 9 0
BBX 7 6 1 0
BITMAP
80000080
80000080
FFFFFF80
80000080
80000080
80000080
ENDCHAR
STARTCHAR i
ENCODING 105
SWIDTH 287 0
DWIDTH 3 0
BBX 1 6 1 0
BITMAP
80
80
80
80
80
80
ENDCHAR
STARTCHAR j
ENCODING 106
SWIDTH 590 0
DWIDTH 5 0
BBX 5 6 0 0
BITMAP
000350
000350
000350
000350
001930
FFE800
ENDCHAR
STARTCHAR k
ENCODING 107
SWIDTH 867 0
DWIDTH 8 0
BBX 7 6 1 0
BITMAP
80001900
80259200
FFFA1000
8026C300
80001A00
80000720
ENDCHAR
STARTCHAR l
ENCODING 108
SWIDTH 709 0
DWIDTH 6 0
BBX 6 6 1 0
BITMAP
800000
800000
800000
800000
B20000
6EFFF4
ENDCHAR
STARTCHAR m
ENCODING 109
SWIDTH 1246 0
DWIDTH 11 0
BBX 10 6 1 0
BITMAP
99ED47DE80
E613E821A2
8000800053
8000800053
8000800053
8000800053
ENDCHAR
STARTCHAR n
ENCODING 110
SWIDTH 933 0
DWIDTH 8 0
BBX 7 6 1 0
BITMAP
85BEE900
E9411840
90000260
80000260
80000260
80000260
ENDCHAR
STARTCHAR o
ENCODING 111
SWIDTH 983 0
DWIDTH 9 0
BBX 9 6 0 0
BITMAP
02AEFD8100
1C51026B00
5400000730
5400000730
1B51016B00
02ADFD9100
ENDCHAR
STARTCHAR p
ENCODING 112
SWIDTH 818 0
DWIDTH 7 0
BBX 6 6 1 0
BITMAP
FFFFC4
80002A
80002A
FFFFC4
800000
800000
ENDCHAR
STARTCHAR q
ENCODING 113
SWIDTH 983 0
DWIDTH 9 0
BBX 9 6 0 0
BITMAP
02AEFD8100
1C51026B00
5400000730
5400000730
1B51016B00
02ADFDAA90
ENDCHAR
STARTCHAR r
ENCODING 114
SWIDTH 609 0
DWIDTH 5 0
BBX 5 6 1 0
BITMAP
86CF70
E93010
900000
800000
800000
800000
ENDCHAR
STARTCHAR s
ENCODING 115
SWIDTH 787 0
DWIDTH 7 0
BBX 7 6 0 0
BITMAP
09EFFD00
38100000
07CA6100
00025A20
00001750
4FFFE900
ENDCHAR
STARTCHAR t
ENCODING 116
SWIDTH 708 0
DWIDTH 6 0
BBX 7 6 0 0
BITMAP
CFFFFF30
00170000
00170000
00170000
00170000
00170000
ENDCHAR
STARTCHAR u
ENCODING 117
SWIDTH 931 0
DWIDTH 8 0
BBX 7 6 1 0
BITMAP
80000350
80000350
80000350
80000350
B2027D50
5DFD8450
ENDCHAR
STARTCHAR v
ENCODING 118
SWIDTH 817 0
DWIDTH 7 0
BBX 7 6 0 0
BITMAP
72000090
19000450
08300A00
01A06500
0085B000
001E5000
ENDCHAR
STARTCHAR w
ENCODING 119
SWIDTH 1266 0
DWIDTH 11 0
BBX 11 6 0 0
BITMAP
72000C400090
180045800270
090080810810
045180260800
009620095400
007A0006B000
ENDCHAR
STARTCHAR x
ENCODING 120
SWIDTH 821 0
DWIDTH 7 0
BBX 7 6 0 0
BITMAP
29000560
02804600
002A6000
00488000
03703700
38000370
ENDCHAR
STARTCHAR y
ENCODING 121
SWIDTH 911 0
DWIDTH 8 0
BBX 8 6 0 0
BITMAP
35000063
36000073
1C3027D3
04CFD873
000015C1
3FFFEA30
ENDCHAR
STARTCHAR z
ENCODING 122
SWIDTH 728 0
DWIDTH 7 0
BBX 6 6 0 0
BITMAP
4FFFFC
000051
000510
004100
041000
4FFFFF
ENDCHAR
STARTCHAR braceleft
ENCODING 123
SWIDTH 386 0
DWIDTH 3 0
BBX 3 8 0 -1
BITMAP
05F0
0910
0800
0900
B600
0900
0900
07F0
ENDCHAR
STARTCHAR bar
ENCODING 124
SWIDTH 259 0
DWIDTH 2 0
BBX 2 9 0 -2
BITMAP
17
17
17
17
17
17
17
17
17
ENDCHAR
STARTCHAR braceright
ENCODING 125
SWIDTH 386 0
DWIDTH 3 0
BBX 4 8 0 -1
BITMAP
8C00
0730
0530
0450
01E3
0550
0730
8D10
ENDCHAR
STARTCHAR asciitilde
ENCODING 126
SWIDTH 634 0
DWIDTH 6 0
BBX 5 2 0 3
BITMAP
1DB350
325DA0
ENDCHAR
STARTCHAR nonbreakingspace
ENCODING 160
SWIDTH 375 0
DWIDTH 3 0
BBX 1 1 0 0
BITMAP
00
ENDCHAR
STARTCHAR exclamdown
ENCODING 161
SWIDTH 274 0
DWIDTH 2 0
BBX 2 6 0 0
BITMAP
19
00
06
07
18
19
ENDCHAR
STARTCHAR cent
ENCODING 162
SWIDTH 736 0
DWIDTH 7 0
BBX 7 7 0 -1
BITMAP
00070000
05CFFF30
4A270000
71070000
49270000
05CFFF30
00070000
ENDCHAR
STARTCHAR sterling
ENCODING 163
SWIDTH 792 0
DWIDTH 7 0
BBX 7 6 0 0
BITMAP
005DFF40
00B20000
02600000
7FFFF400
05500000
7FFFFF90
ENDCHAR
STARTCHAR currency
ENCODING 164
SWIDTH 560 0
DWIDTH 5 0
BBX 5 5 0 0
BITMAP
200020
1CED20
191810
1CEC20
200020
ENDCHAR
STARTCHAR yen
ENCODING 165
SWIDTH 811 0
DWIDTH 7 0
BBX 7 6 0 0
BITMAP
28000540
02704400
2DEAED60
022B3210
2DDEDD60
02292210
ENDCHAR
STARTCHAR brokenbar
ENCODING 166
SWIDTH 259 0
DWIDTH 2 0
BBX 2 8 0 -2
BITMAP
17
17
17
00
00
17
17
17
ENDCHAR
STARTCHAR section
ENCODING 167
SWIDTH 500 0
DWIDTH 5 0
BBX 4 6 0 0
BITMAP
1DF8
1D91
546A
4A39
04D7
3FE7
ENDCHAR
STARTCHAR dieresis
ENCODING 168
SWIDTH 527 0
DWIDTH 5 0
BBX 3 1 1 5
BITMAP
A190
ENDCHAR
STARTCHAR copyright
ENCODING 169
SWIDTH 770 0
DWIDTH 7 0
BBX 7 6 0 0
BITMAP
04CEC300
2A313B10
61BFC160
74700160
2BEFFB10
04CFC300
ENDCHAR
STARTCHAR ordfeminine
ENCODING 170
SWIDTH 497 0
DWIDTH 4 0
BBX 4 5 0 1
BITMAP
6FFA
4CEF
8FED
0000
9FFF
ENDCHAR
STARTCHAR guillemotleft
ENCODING 171
SWIDTH 440 0
DWIDTH 4 0
BBX 4 3 0 2
BITMAP
1844
82A0
1844
ENDCHAR
STARTCHAR logicalnot
ENCODING 172
SWIDTH 634 0
DWIDTH 6 0
BBX 5 2 0 2
BITMAP
4FFFE0
000070
ENDCHAR
STARTCHAR uni00AD
ENCODING 173
SWIDTH 540 0
DWIDTH 5 0
BBX 5 1 0 3
BITMAP
4FFF20
ENDCHAR
STARTCHAR registered
ENCODING 174
SWIDTH 600 0
DWIDTH 5 0
BBX 5 4 0 2
BITMAP
09EC30
57F980
57F980
0CFF30
ENDCHAR
STARTCHAR macron
ENCODING 175
SWIDTH 527 0
DWIDTH 5 0
BBX 3 1 1 5
BITMAP
CF90
ENDCHAR
STARTCHAR degree
ENCODING 176
SWIDTH 373 0
DWIDTH 3 0
BBX 3 2 0 4
BITMAP
3E80
3E80
ENDCHAR
STARTCHAR plusminus
ENCODING 177
SWIDTH 634 0
DWIDTH 6 0
BBX 5 6 0 0
BITMAP
006100
006100
4FFFE0
006100
006100
4FFFE0
ENDCHAR
STARTCHAR twosuperior
ENCODING 178
SWIDTH 511 0
DWIDTH 5 0
BBX 5 4 0 2
BITMAP
AFE900
001900
024200
AFFF20
ENDCHAR
STARTCHAR threesuperior
ENCODING 179
SWIDTH 512 0
DWIDTH 5 0
BBX 4 4 0 2
BITMAP
9FE9
08F7
001A
AFE8
ENDCHAR
STARTCHAR acute
ENCODING 180
SWIDTH 527 0
DWIDTH 5 0
BBX 3 2 1 5
BITMAP
0290
1910
ENDCHAR
STARTCHAR micro
ENCODING 181
SWIDTH 705 0
DWIDTH 6 0
BBX 6 6 0 -2
BITMAP
080036
070063
1A13D0
3AEB90
620000
800000
ENDCHAR
STARTCHAR paragraph
ENCODING 182
SWIDTH 585 0
DWIDTH 5 0
BBX 5 6 0 0
BITMAP
1BFF30
6FE330
1CE330
006330
006330
006330
ENDCHAR
STARTCHAR periodcentered
ENCODING 183
SWIDTH 185 0
DWIDTH 2 0
BBX 2 1 0 3
BITMAP
83
ENDCHAR
STARTCHAR cedilla
ENCODING 184
SWIDTH 527 0
DWIDTH 5 0
BBX 3 2 1 -2
BITMAP
0D40
9E30
ENDCHAR
STARTCHAR onesuperior
ENCODING 185
SWIDTH 261 0
DWIDTH 2 0
BBX 2 4 0 2
BITMAP
E8
08
08
08
ENDCHAR
STARTCHAR ordmasculine
ENCODING 186
SWIDTH 520 0
DWIDTH 5 0
BBX 5 5 0 1
BITMAP
4DEB10
920650
4DEB10
000000
8FFF30
ENDCHAR
STARTCHAR guillemotright
ENCODING 187
SWIDTH 440 0
DWIDTH 4 0
BBX 4 3 0 2
BITMAP
5481
0A28
5481
ENDCHAR
STARTCHAR onequarter
ENCODING 188
SWIDTH 857 0
DWIDTH 8 0
BBX 8 6 0 0
BITMAP
C9001800
07008100
07063000
00454760
0276FFF4
18000160
ENDCHAR
STARTCHAR onehalf
ENCODING 189
SWIDTH 937 0
DWIDTH 8 0
BBX 8 6 0 0
BITMAP
C9001800
07008100
07063000
00455FE6
02700025
18005EFB
ENDCHAR
STARTCHAR threequarters
ENCODING 190
SWIDTH 978 0
DWIDTH 9 0
BBX 9 6 0 0
BITMAP
7FE3008000
09E2071000
8FE4630000
0003646700
00174FFF50
0080000700
ENDCHAR
STARTCHAR questiondown
ENCODING 191
SWIDTH 568 0
DWIDTH 5 0
BBX 5 6 0 0
BITMAP
000A00
000000
002900
1A9500
560000
1AEF90
ENDCHAR
STARTCHAR Agrave
ENCODING 192
SWIDTH 812 0
DWIDTH 7 0
BBX 7 9 0 0
BITMAP
00920000
00191000
00000000
000D4000
0075A000
01906400
07200A00
1EFFFF50
830001A0
ENDCHAR
STARTCHAR Aacute
ENCODING 193
SWIDTH 812 0
DWIDTH 7 0
BBX 7 9 0 0
BITMAP
00009100
00083000
00000000
000D4000
0075A000
01906400
07200A00
1EFFFF50
830001A0
ENDCHAR
STARTCHAR Acircumflex
ENCODING 194
SWIDTH 812 0
DWIDTH 7 0
BBX 7 9 0 0
BITMAP
00183000
00605200
00000000
000D4000
0075A000
01906400
07200A00
1EFFFF50
830001A0
ENDCHAR
STARTCHAR Atilde
ENCODING 195
SWIDTH 812 0
DWIDTH 7 0
BBX 7 8 0 0
BITMAP
00AFE200
00000000
000D4000
0075A000
01906400
07200A00
1EFFFF50
830001A0
ENDCHAR
STARTCHAR Adieresis
ENCODING 196
SWIDTH 812 0
DWIDTH 7 0
BBX 7 8 0 0
BITMAP
0081A000
00000000
000D4000
0075A000
01906400
07200A00
1EFFFF50
830001A0
ENDCHAR
STARTCHAR Aring
ENCODING 197
SWIDTH 812 0
DWIDTH 7 0
BBX 7 9 0 0
BITMAP
004E9000
004E9000
00000000
000D4000
0075A000
01906400
07200A00
1EFFFF50
830001A0
ENDCHAR
STARTCHAR AE
ENCODING 198
SWIDTH 1172 0
DWIDTH 11 0
BBX 10 6 0 0
BITMAP
0004FFFFFC
001C560000
00943FFFF9
0470360000
1EFFF60000
94003FFFFD
ENDCHAR
STARTCHAR Ccedilla
ENCODING 199
SWIDTH 869 0
DWIDTH 8 0
BBX 8 8 0 -2
BITMAP
02AEFFF3
1C510000
54000000
54000000
1C510000
02AEFFF3
0002E100
000CE100
ENDCHAR
STARTCHAR Egrave
ENCODING 200
SWIDTH 754 0
DWIDTH 7 0
BBX 6 9 1 0
BITMAP
0A1000
029000
000000
FFFFF1
900000
FFFFC0
900000
900000
FFFFF2
ENDCHAR
STARTCHAR Eacute
ENCODING 201
SWIDTH 754 0
DWIDTH 7 0
BBX 6 9 1 0
BITMAP
001A00
009200
000000
FFFFF1
900000
FFFFC0
900000
900000
FFFFF2
ENDCHAR
STARTCHAR Ecircumflex
ENCODING 202
SWIDTH 754 0
DWIDTH 7 0
BBX 6 9 1 0
BITMAP
028200
160610
000000
FFFFF1
900000
FFFFC0
900000
900000
FFFFF2
ENDCHAR
STARTCHAR Edieresis
ENCODING 203
SWIDTH 754 0
DWIDTH 7 0
BBX 6 8 1 0
BITMAP
0A0A00
000000
FFFFF1
900000
FFFFC0
900000
900000
FFFFF2
ENDCHAR
STARTCHAR Igrave
ENCODING 204
SWIDTH 287 0
DWIDTH 3 0
BBX 3 9 -1 0
BITMAP
2900
0480
0000
0080
0080
0080
0080
0080
0080
ENDCHAR
STARTCHAR Iacute
ENCODING 205
SWIDTH 287 0
DWIDTH 3 0
BBX 3 9 0 0
BITMAP
0280
2910
0000
0800
0800
0800
0800
0800
0800
ENDCHAR
STARTCHAR Icircumflex
ENCODING 206
SWIDTH 287 0
DWIDTH 3 0
BBX 4 9 -1 0
BITMAP
0481
2406
0000
0080
0080
0080
0080
0080
0080
ENDCHAR
STARTCHAR Idieresis
ENCODING 207
SWIDTH 287 0
DWIDTH 3 0
BBX 3 8 0 0
BITMAP
A280
0000
0800
0800
0800
0800
0800
0800
ENDCHAR
STARTCHAR Eth
ENCODING 208
SWIDTH 910 0
DWIDTH 8 0
BBX 8 6 0 0
BITMAP
0FFFEC50
080014B4
DFFF0018
08000018
080003A4
0FFFEC60
ENDCHAR
STARTCHAR Ntilde
ENCODING 209
SWIDTH 936 0
DWIDTH 8 0
BBX 7 8 1 0
BITMAP
03EF9000
00000000
D3000260
89300260
80930260
80093260
80009460
80000960
ENDCHAR
STARTCHAR Ograve
ENCODING 210
SWIDTH 983 0
DWIDTH 9 0
BBX 9 9 0 0
BITMAP
000A100000
0002900000
0000000000
02AEFD8100
1C51026B00
5400000730
5400000730
1B51016B00
02ADFD9100
ENDCHAR
STARTCHAR Oacute
ENCODING 211
SWIDTH 983 0
DWIDTH 9 0
BBX 9 9 0 0
BITMAP
0000190000
0000920000
0000000000
02AEFD8100
1C51026B00
5400000730
5400000730
1B51016B00
02ADFD9100
ENDCHAR
STARTCHAR Ocircumflex
ENCODING 212
SWIDTH 983 0
DWIDTH 9 0
BBX 9 9 0 0
BITMAP
0002810000
0015060000
0000000000
02AEFD8100
1C51026B00
5400000730
5400000730
1B51016B00
02ADFD9100
ENDCHAR
STARTCHAR Otilde
ENCODING 213
SWIDTH 983 0
DWIDTH 9 0
BBX 9 8 0 0
BITMAP
000DFC0000
0000000000
02AEFD8100
1C51026B00
5400000730
5400000730
1B51016B00
02ADFD9100
ENDCHAR
STARTCHAR Odieresis
ENCODING 214
SWIDTH 983 0
DWIDTH 9 0
BBX 9 8 0 0
BITMAP
000A0A0000
0000000000
02AEFD8100
1C51026B00
5400000730
5400000730
1B51016B00
02ADFD9100
ENDCHAR
STARTCHAR multiply
ENCODING 215
SWIDTH 634 0
DWIDTH 6 0
BBX 4 4 1 1
BITMAP
8126
1980
1980
8136
ENDCHAR
STARTCHAR Oslash
ENCODING 216
SWIDTH 983 0
DWIDTH 9 0
BBX 9 8 0 -1
BITMAP
0000006300
02AEFDC100
1C51077B00
5400530630
5405400730
1C76016B00
02DEFD9100
0440000000
ENDCHAR
STARTCHAR Ugrave
ENCODING 217
SWIDTH 891 0
DWIDTH 8 0
BBX 7 9 1 0
BITMAP
05500000
00650000
00000000
80000710
80000710
80000710
80000810
C4114C00
4CEEC400
ENDCHAR
STARTCHAR Uacute
ENCODING 218
SWIDTH 891 0
DWIDTH 8 0
BBX 7 9 1 0
BITMAP
00056000
00560000
00000000
80000710
80000710
80000710
80000810
C4114C00
4CEEC400
ENDCHAR
STARTCHAR Ucircumflex
ENCODING 219
SWIDTH 891 0
DWIDTH 8 0
BBX 7 9 1 0
BITMAP
00660000
04225000
00000000
80000710
80000710
80000710
80000810
C4114C00
4CEEC400
ENDCHAR
STARTCHAR Udieresis
ENCODING 220
SWIDTH 891 0
DWIDTH 8 0
BBX 7 8 1 0
BITMAP
03763000
00000000
80000710
80000710
80000710
80000810
C4114C00
4CEEC400
ENDCHAR
STARTCHAR Yacute
ENCODING 221
SWIDTH 763 0
DWIDTH 7 0
BBX 7 9 0 0
BITMAP
00019000
00092000
00000000
47000830
07608500
009A7000
000A0000
00080000
00080000
ENDCHAR
STARTCHAR Thorn
ENCODING 222
SWIDTH 787 0
DWIDTH 7 0
BBX 6 6 1 0
BITMAP
800000
FFFEA1
800157
800057
FFFEA1
800000
ENDCHAR
STARTCHAR germandbls
ENCODING 223
SWIDTH 863 0
DWIDTH 8 0
BBX 8 6 0 0
BITMAP
04CEEB30
1C301490
363FFE30
360003A1
360002A2
36CFFD60
ENDCHAR
STARTCHAR agrave
ENCODING 224
SWIDTH 888 0
DWIDTH 8 0
BBX 7 9 0 0
BITMAP
00650000
00074000
00000000
0DFFEB30
00000290
017ACEF0
2A632180
661026D0
1AEFD9A0
ENDCHAR
STARTCHAR aacute
ENCODING 225
SWIDTH 888 0
DWIDTH 8 0
BBX 7 9 0 0
BITMAP
00006500
00056000
00000000
0DFFEB30
00000290
017ACEF0
2A632180
661026D0
1AEFD9A0
ENDCHAR
STARTCHAR acircumflex
ENCODING 226
SWIDTH 888 0
DWIDTH 8 0
BBX 7 9 0 0
BITMAP
00066000
00522400
00000000
0DFFEB30
00000290
017ACEF0
2A632180
661026D0
1AEFD9A0
ENDCHAR
STARTCHAR atilde
ENCODING 227
SWIDTH 888 0
DWIDTH 8 0
BBX 7 8 0 0
BITMAP
006FF500
00000000
0DFFEB30
00000290
017ACEF0
2A632180
661026D0
1AEFD9A0
ENDCHAR
STARTCHAR adieresis
ENCODING 228
SWIDTH 888 0
DWIDTH 8 0
BBX 7 8 0 0
BITMAP
00467200
00000000
0DFFEB30
00000290
017ACEF0
2A632180
661026D0
1AEFD9A0
ENDCHAR
STARTCHAR aring
ENCODING 229
SWIDTH 888 0
DWIDTH 8 0
BBX 7 9 0 0
BITMAP
001DC000
001DD000
00000000
0DFFEB30
00000290
017ACEF0
2A632180
661026D0
1AEFD9A0
ENDCHAR
STARTCHAR ae
ENCODING 230
SWIDTH 1551 0
DWIDTH 14 0
BBX 14 6 0 0
BITMAP
0DFFEC43BEEB30
000002A7210272
017ACEFFFFFFF6
2A632173000000
661014AD510000
1AEFDA43AEFFF0
ENDCHAR
STARTCHAR ccedilla
ENCODING 231
SWIDTH 869 0
DWIDTH 8 0
BBX 8 8 0 -2
BITMAP
02AEFFF3
1C510000
54000000
54000000
1C510000
02AEFFF3
0002E100
000CE100
ENDCHAR
STARTCHAR egrave
ENCODING 232
SWIDTH 910 0
DWIDTH 8 0
BBX 8 9 0 0
BITMAP
00470000
00056000
00000000
02AEEC50
18310263
5FFFFFF8
55000000
1C620000
029DFFF2
ENDCHAR
STARTCHAR eacute
ENCODING 233
SWIDTH 910 0
DWIDTH 8 0
BBX 8 9 0 0
BITMAP
00004700
00047000
00000000
02AEEC50
18310263
5FFFFFF8
55000000
1C620000
029DFFF2
ENDCHAR
STARTCHAR ecircumflex
ENCODING 234
SWIDTH 910 0
DWIDTH 8 0
BBX 8 9 0 0
BITMAP
00057000
00431500
00000000
02AEEC50
18310263
5FFFFFF8
55000000
1C620000
029DFFF2
ENDCHAR
STARTCHAR edieresis
ENCODING 235
SWIDTH 910 0
DWIDTH 8 0
BBX 8 8 0 0
BITMAP
00185500
00000000
02AEEC50
18310263
5FFFFFF8
55000000
1C620000
029DFFF2
ENDCHAR
STARTCHAR igrave
ENCODING 236
SWIDTH 287 0
DWIDTH 3 0
BBX 3 9 -1 0
BITMAP
2900
0480
0000
0080
0080
0080
0080
0080
0080
ENDCHAR
STARTCHAR iacute
ENCODING 237
SWIDTH 287 0
DWIDTH 3 0
BBX 3 9 0 0
BITMAP
0280
2910
0000
0800
0800
0800
0800
0800
0800
ENDCHAR
STARTCHAR icircumflex
ENCODING 238
SWIDTH 287 0
DWIDTH 3 0
BBX 4 9 -1 0
BITMAP
0481
2406
0000
0080
0080
0080
0080
0080
0080
ENDCHAR
STARTCHAR idieresis
ENCODING 239
SWIDTH 287 0
DWIDTH 3 0
BBX 3 8 0 0
BITMAP
A280
0000
0800
0800
0800
0800
0800
0800
ENDCHAR
STARTCHAR eth
ENCODING 240
SWIDTH 910 0
DWIDTH 8 0
BBX 8 6 0 0
BITMAP
0FFFEC50
080014B4
DFFF0018
08000018
080003A4
0FFFEC60
ENDCHAR
STARTCHAR ntilde
ENCODING 241
SWIDTH 933 0
DWIDTH 8 0
BBX 7 8 1 0
BITMAP
04FF7000
00000000
85BEE900
E9411840
90000260
80000260
80000260
80000260
ENDCHAR
STARTCHAR ograve
ENCODING 242
SWIDTH 983 0
DWIDTH 9 0
BBX 9 9 0 0
BITMAP
000A100000
0002900000
0000000000
02AEFD8100
1C51026B00
5400000730
5400000730
1B51016B00
02ADFD9100
ENDCHAR
STARTCHAR oacute
ENCODING 243
SWIDTH 983 0
DWIDTH 9 0
BBX 9 9 0 0
BITMAP
0000190000
0000920000
0000000000
02AEFD8100
1C51026B00
5400000730
5400000730
1B51016B00
02ADFD9100
ENDCHAR
STARTCHAR ocircumflex
ENCODING 244
SWIDTH 983 0
DWIDTH 9 0
BBX 9 9 0 0
BITMAP
0002810000
0015060000
0000000000
02AEFD8100
1C51026B00
5400000730
5400000730
1B51016B00
02ADFD9100
ENDCHAR
STARTCHAR otilde
ENCODING 245
SWIDTH 983 0
DWIDTH 9 0
BBX 9 8 0 0
BITMAP
000DFC0000
0000000000
02AEFD8100
1C51026B00
5400000730
5400000730
1B51016B00
02ADFD9100
ENDCHAR
STARTCHAR odieresis
ENCODING 246
SWIDTH 983 0
DWIDTH 9 0
BBX 9 8 0 0
BITMAP
000A0A0000
0000000000
02AEFD8100
1C51026B00
5400000730
5400000730
1B51016B00
02ADFD9100
ENDCHAR
STARTCHAR divide
ENCODING 247
SWIDTH 634 0
DWIDTH 6 0
BBX 5 5 0 1
BITMAP
007200
000000
4FFFE0
000000
007200
ENDCHAR
STARTCHAR oslash
ENCODING 248
SWIDTH 983 0
DWIDTH 9 0
BBX 9 8 0 -1
BITMAP
0000006300
02AEFDC100
1C51077B00
5400530630
5405400730
1C76016B00
02DEFD9100
0440000000
ENDCHAR
STARTCHAR ugrave
ENCODING 249
SWIDTH 931 0
DWIDTH 8 0
BBX 7 9 1 0
BITMAP
04700000
00570000
00000000
80000350
80000350
80000350
80000350
B2027D50
5DFD8450
ENDCHAR
STARTCHAR uacute
ENCODING 250
SWIDTH 931 0
DWIDTH 8 0
BBX 7 9 1 0
BITMAP
00037000
00380000
00000000
80000350
80000350
80000350
80000350
B2027D50
5DFD8450
ENDCHAR
STARTCHAR ucircumflex
ENCODING 251
SWIDTH 931 0
DWIDTH 8 0
BBX 7 9 1 0
BITMAP
00570000
03316000
00000000
80000350
80000350
80000350
80000350
B2027D50
5DFD8450
ENDCHAR
STARTCHAR udieresis
ENCODING 252
SWIDTH 931 0
DWIDTH 8 0
BBX 7 8 1 0
BITMAP
00946000
00000000
80000350
80000350
80000350
80000350
B2027D50
5DFD8450
ENDCHAR
STARTCHAR yacute
ENCODING 253
SWIDTH 911 0
DWIDTH 8 0
BBX 8 9 0 0
BITMAP
00005500
00056000
00000000
35000063
36000073
1C3027D3
04CFD873
000015C1
3FFFEA30
ENDCHAR
STARTCHAR thorn
ENCODING 254
SWIDTH 787 0
DWIDTH 7 0
BBX 6 6 1 0
BITMAP
800000
FFFEA1
800157
800057
FFFEA1
800000
ENDCHAR
STARTCHAR ydieresis
ENCODING 255
SWIDTH 911 0
DWIDTH 8 0
BBX 8 8 0 0
BITMAP
00367300
00000000
35000063
36000073
1C3027D3
04CFD873
000015C1
3FFFEA30
ENDCHAR
STARTCHAR Amacron
ENCODING 256
SWIDTH 812 0
DWIDTH 7 0
BBX 7 8 0 0
BITMAP
008FD000
00000000
000D4000
0075A000
01906400
07200A00
1EFFFF50
830001A0
ENDCHAR
STARTCHAR amacron
ENCODING 257
SWIDTH 888 0
DWIDTH 8 0
BBX 7 8 0 0
BITMAP
004FF200
00000000
0DFFEB30
00000290
017ACEF0
2A632180
661026D0
1AEFD9A0
ENDCHAR
STARTCHAR Abreve
ENCODING 258
SWIDTH 812 0
DWIDTH 7 0
BBX 7 8 0 0
BITMAP
008EC100
00000000
000D4000
0075A000
01906400
07200A00
1EFFFF50
830001A0
ENDCHAR
STARTCHAR abreve
ENCODING 259
SWIDTH 888 0
DWIDTH 8 0
BBX 7 8 0 0
BITMAP
004ED300
00000000
0DFFEB30
00000290
017ACEF0
2A632180
661026D0
1AEFD9A0
ENDCHAR
STARTCHAR Aogonek
ENCODING 260
SWIDTH 812 0
DWIDTH 7 0
BBX 8 8 0 -2
BITMAP
000C4000
00739000
01905400
07200900
1EFFFF50
830001A0
00000160
000001EB
ENDCHAR
STARTCHAR aogonek
ENCODING 261
SWIDTH 888 0
DWIDTH 8 0
BBX 8 8 0 -2
BITMAP
0DFFEB30
00000290
017ACEF0
2A632180
661013A0
1AEFD9A0
00000160
000002EA
ENDCHAR
STARTCHAR Cacute
ENCODING 262
SWIDTH 869 0
DWIDTH 8 0
BBX 8 9 0 0
BITMAP
00002900
00019100
00000000
02AEFFF3
1C510000
54000000
54000000
1C510000
02AEFFF3
ENDCHAR
STARTCHAR cacute
ENCODING 263
SWIDTH 869 0
DWIDTH 8 0
BBX 8 9 0 0
BITMAP
00002900
00019100
00000000
02AEFFF3
1C510000
54000000
54000000
1C510000
02AEFFF3
ENDCHAR
STARTCHAR Ccircumflex
ENCODING 264
SWIDTH 869 0
DWIDTH 8 0
BBX 8 9 0 0
BITMAP
00038100
00250600
00000000
02AEFFF3
1C510000
54000000
54000000
1C510000
02AEFFF3
ENDCHAR
STARTCHAR ccircumflex
ENCODING 265
SWIDTH 869 0
DWIDTH 8 0
BBX 8 9 0 0
BITMAP
00038100
00250600
00000000
02AEFFF3
1C510000
54000000
54000000
1C510000
02AEFFF3
ENDCHAR
STARTCHAR Cdotaccent
ENCODING 266
SWIDTH 869 0
DWIDTH 8 0
BBX 8 8 0 0
BITMAP
0000A000
00000000
02AEFFF3
1C510000
54000000
54000000
1C510000
02AEFFF3
ENDCHAR
STARTCHAR cdotaccent
ENCODING 267
SWIDTH 869 0
DWIDTH 8 0
BBX 8 8 0 0
BITMAP
0000A000
00000000
02AEFFF3
1C510000
54000000
54000000
1C510000
02AEFFF3
ENDCHAR
STARTCHAR Ccaron
ENCODING 268
SWIDTH 869 0
DWIDTH 8 0
BBX 8 9 0 0
BITMAP
00250600
00038100
00000000
02AEFFF3
1C510000
54000000
54000000
1C510000
02AEFFF3
ENDCHAR
STARTCHAR ccaron
ENCODING 269
SWIDTH 869 0
DWIDTH 8 0
BBX 8 9 0 0
BITMAP
00250600
00038100
00000000
02AEFFF3
1C510000
54000000
54000000
1C510000
02AEFFF3
ENDCHAR
STARTCHAR Dcaron
ENCODING 270
SWIDTH 910 0
DWIDTH 8 0
BBX 7 9 1 0
BITMAP
15060000
02820000
00000000
FFFEC500
80002A40
80000180
80000180
80003A40
FFFFD600
ENDCHAR
STARTCHAR dcaron
ENCODING 271
SWIDTH 910 0
DWIDTH 8 0
BBX 7 9 1 0
BITMAP
15060000
02820000
00000000
FFFEC500
80002A40
80000180
80000180
80003A40
FFFFD600
ENDCHAR
STARTCHAR Dcroat
ENCODING 272
SWIDTH 910 0
DWIDTH 8 0
BBX 8 6 0 0
BITMAP
0FFFEC50
080014B4
DFFF0018
08000018
080003A4
0FFFEC60
ENDCHAR
STARTCHAR dcroat
ENCODING 273
SWIDTH 910 0
DWIDTH 8 0
BBX 8 6 0 0
BITMAP
0FFFEC50
080014B4
DFFF0018
08000018
080003A4
0FFFEC60
ENDCHAR
STARTCHAR Emacron
ENCODING 274
SWIDTH 754 0
DWIDTH 7 0
BBX 6 8 1 0
BITMAP
0BFA00
000000
FFFFF1
900000
FFFFC0
900000
900000
FFFFF2
ENDCHAR
STARTCHAR emacron
ENCODING 275
SWIDTH 910 0
DWIDTH 8 0
BBX 8 8 0 0
BITMAP
001FF500
00000000
02AEEC50
18310263
5FFFFFF8
55000000
1C620000
029DFFF2
ENDCHAR
STARTCHAR Ebreve
ENCODING 276
SWIDTH 754 0
DWIDTH 7 0
BBX 6 8 1 0
BITMAP
0AFA00
000000
FFFFF1
900000
FFFFC0
900000
900000
FFFFF2
ENDCHAR
STARTCHAR ebreve
ENCODING 277
SWIDTH 910 0
DWIDTH 8 0
BBX 8 8 0 0
BITMAP
002DE500
00000000
02AEEC50
18310263
5FFFFFF8
55000000
1C620000
029DFFF2
ENDCHAR
STARTCHAR Edotaccent
ENCODING 278
SWIDTH 754 0
DWIDTH 7 0
BBX 6 8 1 0
BITMAP
00A000
000000
FFFFF1
900000
FFFFC0
900000
900000
FFFFF2
ENDCHAR
STARTCHAR edotaccent
ENCODING 279
SWIDTH 910 0
DWIDTH 8 0
BBX 8 8 0 0
BITMAP
00047000
00000000
02AEEC50
18310263
5FFFFFF8
55000000
1C620000
029DFFF2
ENDCHAR
STARTCHAR Eogonek
ENCODING 280
SWIDTH 754 0
DWIDTH 7 0
BBX 6 8 1 -2
BITMAP
FFFFF1
900000
FFFFC0
900000
900000
FFFFF2
000620
000AF2
ENDCHAR
STARTCHAR eogonek
ENCODING 281
SWIDTH 910 0
DWIDTH 8 0
BBX 8 7 0 -1
BITMAP
02AEEC50
18310263
5FFFFFF8
55000000
1C620000
029DFFF2
000004F7
ENDCHAR
STARTCHAR Ecaron
ENCODING 282
SWIDTH 754 0
DWIDTH 7 0
BBX 6 9 1 0
BITMAP
160610
028200
000000
FFFFF1
900000
FFFFC0
900000
900000
FFFFF2
ENDCHAR
STARTCHAR ecaron
ENCODING 283
SWIDTH 910 0
DWIDTH 8 0
BBX 8 9 0 0
BITMAP
00431500
00057000
00000000
02AEEC50
18310263
5FFFFFF8
55000000
1C620000
029DFFF2
ENDCHAR
STARTCHAR Gcircumflex
ENCODING 284
SWIDTH 910 0
DWIDTH 8 0
BBX 8 9 0 0
BITMAP
00028200
00150600
00000000
029DFFF5
1C620000
54000000
54008FF7
1C620037
029DFEC4
ENDCHAR
STARTCHAR gcircumflex
ENCODING 285
SWIDTH 910 0
DWIDTH 8 0
BBX 8 9 0 0
BITMAP
00028200
00150600
00000000
029DFFF5
1C620000
54000000
54008FF7
1C620037
029DFEC4
ENDCHAR
STARTCHAR Gbreve
ENCODING 286
SWIDTH 910 0
DWIDTH 8 0
BBX 8 8 0 0
BITMAP
000AE900
00000000
029DFFF5
1C620000
54000000
54008FF7
1C620037
029DFEC4
ENDCHAR
STARTCHAR gbreve
ENCODING 287
SWIDTH 910 0
DWIDTH 8 0
BBX 8 8 0 0
BITMAP
000AE900
00000000
029DFFF5
1C620000
54000000
54008FF7
1C620037
029DFEC4
ENDCHAR
STARTCHAR Gdotaccent
ENCODING 288
SWIDTH 910 0
DWIDTH 8 0
BBX 8 8 0 0
BITMAP
0000A000
00000000
029DFFF5
1C620000
54000000
54008FF7
1C620037
029DFEC4
ENDCHAR
STARTCHAR gdotaccent
ENCODING 289
SWIDTH 910 0
DWIDTH 8 0
BBX 8 8 0 0
BITMAP
0000A000
00000000
029DFFF5
1C620000
54000000
54008FF7
1C620037
029DFEC4
ENDCHAR
STARTCHAR Gcommaaccent
ENCODING 290
SWIDTH 910 0
DWIDTH 8 0
BBX 8 9 0 -3
BITMAP
029DFFF5
1C620000
54000000
54008FF7
1C620037
029DFEC4
00000000
00009000
00008000
ENDCHAR
STARTCHAR gcommaaccent
ENCODING 291
SWIDTH 910 0
DWIDTH 8 0
BBX 8 9 0 -3
BITMAP
029DFFF5
1C620000
54000000
54008FF7
1C620037
029DFEC4
00000000
00009000
00008000
ENDCHAR
STARTCHAR Hcircumflex
ENCODING 292
SWIDTH 949 0
DWIDTH 9 0
BBX 7 9 1 0
BITMAP
00481000
02406000
00000000
80000080
80000080
FFFFFF80
80000080
80000080
80000080
ENDCHAR
STARTCHAR hcircumflex
ENCODING 293
SWIDTH 949 0
DWIDTH 9 0
BBX 7 9 1 0
BITMAP
00481000
02406000
00000000
80000080
80000080
FFFFFF80
80000080
80000080
80000080
ENDCHAR
STARTCHAR Hbar
ENCODING 294
SWIDTH 949 0
DWIDTH 9 0
BBX 9 6 0 0
BITMAP
0800000800
CFFFFFFF40
0800000800
0FFFFFF800
0800000800
0800000800
ENDCHAR
STARTCHAR hbar
ENCODING 295
SWIDTH 949 0
DWIDTH 9 0
BBX 9 6 0 0
BITMAP
0800000800
CFFFFFFF40
0800000800
0FFFFFF800
0800000800
0800000800
ENDCHAR
STARTCHAR Itilde
ENCODING 296
SWIDTH 287 0
DWIDTH 3 0
BBX 4 8 -1 0
BITMAP
2EFA
0000
0080
0080
0080
0080
0080
0080
ENDCHAR
STARTCHAR itilde
ENCODING 297
SWIDTH 287 0
DWIDTH 3 0
BBX 4 8 -1 0
BITMAP
2EFA
0000
0080
0080
0080
0080
0080
0080
ENDCHAR
STARTCHAR Imacron
ENCODING 298
SWIDTH 287 0
DWIDTH 3 0
BBX 3 8 0 0
BITMAP
EF80
0000
0800
0800
0800
0800
0800
0800
ENDCHAR
STARTCHAR imacron
ENCODING 299
SWIDTH 287 0
DWIDTH 3 0
BBX 3 8 0 0
BITMAP
EF80
0000
0800
0800
0800
0800
0800
0800
ENDCHAR
STARTCHAR Ibreve
ENCODING 300
SWIDTH 287 0
DWIDTH 3 0
BBX 4 8 -1 0
BITMAP
1CE7
0000
0080
0080
0080
0080
0080
0080
ENDCHAR
STARTCHAR ibreve
ENCODING 301
SWIDTH 287 0
DWIDTH 3 0
BBX 4 8 -1 0
BITMAP
1CE7
0000
0080
0080
0080
0080
0080
0080
ENDCHAR
STARTCHAR Iogonek
ENCODING 302
SWIDTH 287 0
DWIDTH 3 0
BBX 3 8 0 -2
BITMAP
0800
0800
0800
0800
0800
0800
6100
9F20
ENDCHAR
STARTCHAR iogonek
ENCODING 303
SWIDTH 287 0
DWIDTH 3 0
BBX 3 8 0 -2
BITMAP
0800
0800
0800
0800
0800
0800
6100
9F20
ENDCHAR
STARTCHAR Idotaccent
ENCODING 304
SWIDTH 287 0
DWIDTH 3 0
BBX 2 8 0 0
BITMAP
1A
00
08
08
08
08
08
08
ENDCHAR
STARTCHAR dotlessi
ENCODING 305
SWIDTH 287 0
DWIDTH 3 0
BBX 1 6 1 0
BITMAP
80
80
80
80
80
80
ENDCHAR
STARTCHAR IJ
ENCODING 306
SWIDTH 877 0
DWIDTH 8 0
BBX 6 6 1 0
BITMAP
800008
800008
800008
800008
80003B
86FFC4
ENDCHAR
STARTCHAR ij
ENCODING 307
SWIDTH 877 0
DWIDTH 8 0
BBX 6 6 1 0
BITMAP
800008
800008
800008
800008
80003B
86FFC4
ENDCHAR
STARTCHAR Jcircumflex
ENCODING 308
SWIDTH 590 0
DWIDTH 5 0
BBX 6 9 0 0
BITMAP
000670
004325
000000
000350
000350
000350
000350
001930
FFE800
ENDCHAR
STARTCHAR jcircumflex
ENCODING 309
SWIDTH 590 0
DWIDTH 5 0
BBX 6 9 0 0
BITMAP
000670
004325
000000
000350
000350
000350
000350
001930
FFE800
ENDCHAR
STARTCHAR Kcommaaccent
ENCODING 310
SWIDTH 806 0
DWIDTH 7 0
BBX 6 9 1 -3
BITMAP
800173
805700
A93000
976000
803920
800176
000000
009000
008000
ENDCHAR
STARTCHAR kcommaaccent
ENCODING 311
SWIDTH 867 0
DWIDTH 8 0
BBX 7 9 1 -3
BITMAP
80001900
80259200
FFFA1000
8026C300
80001A00
80000720
00000000
00630000
00710000
ENDCHAR
STARTCHAR kgreenlandic
ENCODING 312
SWIDTH 867 0
DWIDTH 8 0
BBX 7 6 1 0
BITMAP
80001900
80259200
FFFA1000
8026C300
80001A00
80000720
ENDCHAR
STARTCHAR Lacute
ENCODING 313
SWIDTH 701 0
DWIDTH 6 0
BBX 6 9 0 0
BITMAP
028000
291000
000000
080000
080000
080000
080000
080000
0FFFFF
ENDCHAR
STARTCHAR lacute
ENCODING 314
SWIDTH 709 0
DWIDTH 6 0
BBX 7 9 0 0
BITMAP
02800000
29100000
00000000
08000000
08000000
08000000
08000000
0B200000
06EFFF40
ENDCHAR
STARTCHAR Lcommaaccent
ENCODING 315
SWIDTH 701 0
DWIDTH 6 0
BBX 5 9 1 -3
BITMAP
800000
800000
800000
800000
800000
FFFFF0
000000
009000
008000
ENDCHAR
STARTCHAR lcommaaccent
ENCODING 316
SWIDTH 709 0
DWIDTH 6 0
BBX 6 9 1 -3
BITMAP
800000
800000
800000
800000
B20000
6EFFF4
000000
008100
008000
ENDCHAR
STARTCHAR Lcaron
ENCODING 317
SWIDTH 701 0
DWIDTH 6 0
BBX 5 6 1 0
BITMAP
800900
801700
800000
800000
800000
FFFFF0
ENDCHAR
STARTCHAR lcaron
ENCODING 318
SWIDTH 709 0
DWIDTH 6 0
BBX 6 6 1 0
BITMAP
800900
801700
800000
800000
B20000
6EFFF4
ENDCHAR
STARTCHAR Ldot
ENCODING 319
SWIDTH 701 0
DWIDTH 6 0
BBX 5 6 1 0
BITMAP
800000
800000
800C00
800000
800000
FFFFF0
ENDCHAR
STARTCHAR ldotaccent
ENCODING 320
SWIDTH 709 0
DWIDTH 6 0
BBX 6 6 1 0
BITMAP
800000
800000
800C00
800000
B20000
6EFFF4
ENDCHAR
STARTCHAR Lslash
ENCODING 321
SWIDTH 701 0
DWIDTH 6 0
BBX 6 6 0 0
BITMAP
080000
080000
0BA300
AB1000
080000
0FFFFF
ENDCHAR
STARTCHAR lslash
ENCODING 322
SWIDTH 709 0
DWIDTH 6 0
BBX 7 6 0 0
BITMAP
08000000
08000000
0BA30000
AB100000
0A100000
07EFFF40
ENDCHAR
STARTCHAR Nacute
ENCODING 323
SWIDTH 936 0
DWIDTH 8 0
BBX 7 9 1 0
BITMAP
00038000
00381000
00000000
D3000260
89300260
80930260
80093260
80009460
80000960
ENDCHAR
STARTCHAR nacute
ENCODING 324
SWIDTH 933 0
DWIDTH 8 0
BBX 7 9 1 0
BITMAP
00047000
00470000
00000000
85BEE900
E9411840
90000260
80000260
80000260
80000260
ENDCHAR
STARTCHAR Ncommaaccent
ENCODING 325
SWIDTH 936 0
DWIDTH 8 0
BBX 7 9 1 -3
BITMAP
D3000260
89300260
80930260
80093260
80009460
80000960
00000000
00180000
00250000
ENDCHAR
STARTCHAR ncommaaccent
ENCODING 326
SWIDTH 933 0
DWIDTH 8 0
BBX 7 9 1 -3
BITMAP
85BEE900
E9411840
90000260
80000260
80000260
80000260
00000000
00180000
00350000
ENDCHAR
STARTCHAR Ncaron
ENCODING 327
SWIDTH 936 0
DWIDTH 8 0
BBX 7 9 1 0
BITMAP
03416000
00480000
00000000
D3000260
89300260
80930260
80093260
80009460
80000960
ENDCHAR
STARTCHAR ncaron
ENCODING 328
SWIDTH 933 0
DWIDTH 8 0
BBX 7 9 1 0
BITMAP
04315000
00570000
00000000
85BEE900
E9411840
90000260
80000260
80000260
80000260
ENDCHAR
STARTCHAR napostrophe
ENCODING 329
SWIDTH 1025 0
DWIDTH 9 0
BBX 9 6 0 0
BITMAP
9266CEE700
82E8311A20
0260000530
0260000540
0260000540
0260000540
ENDCHAR
STARTCHAR Eng
ENCODING 330
SWIDTH 936 0
DWIDTH 8 0
BBX 7 6 1 0
BITMAP
D5000260
85800260
80292260
80008760
80000850
808FEA00
ENDCHAR
STARTCHAR eng
ENCODING 331
SWIDTH 933 0
DWIDTH 8 0
BBX 7 6 1 0
BITMAP
85BEE900
E9411850
90000260
80000260
80000750
807FFA00
ENDCHAR
STARTCHAR Omacron
ENCODING 332
SWIDTH 983 0
DWIDTH 9 0
BBX 9 8 0 0
BITMAP
000CFA0000
0000000000
02AEFD8100
1C51026B00
5400000730
5400000730
1B51016B00
02ADFD9100
ENDCHAR
STARTCHAR omacron
ENCODING 333
SWIDTH 983 0
DWIDTH 9 0
BBX 9 8 0 0
BITMAP
000CFA0000
0000000000
02AEFD8100
1C51026B00
5400000730
5400000730
1B51016B00
02ADFD9100
ENDCHAR
STARTCHAR Obreve
ENCODING 334
SWIDTH 983 0
DWIDTH 9 0
BBX 9 8 0 0
BITMAP
000BF90000
0000000000
02AEFD8100
1C51026B00
5400000730
5400000730
1B51016B00
02ADFD9100
ENDCHAR
STARTCHAR obreve
ENCODING 335
SWIDTH 983 0
DWIDTH 9 0
BBX 9 8 0 0
BITMAP
000BF90000
0000000000
02AEFD8100
1C51026B00
5400000730
5400000730
1B51016B00
02ADFD9100
ENDCHAR
STARTCHAR Ohungarumlaut
ENCODING 336
SWIDTH 983 0
DWIDTH 9 0
BBX 9 9 0 0
BITMAP
0001762000
0007370000
0000000000
02AEFD8100
1C51026B00
5400000730
5400000730
1B51016B00
02ADFD9100
ENDCHAR
STARTCHAR ohungarumlaut
ENCODING 337
SWIDTH 983 0
DWIDTH 9 0
BBX 9 9 0 0
BITMAP
0001762000
0007370000
0000000000
02AEFD8100
1C51026B00
5400000730
5400000730
1B51016B00
02ADFD9100
ENDCHAR
STARTCHAR OE
ENCODING 338
SWIDTH 1338 0
DWIDTH 12 0
BBX 12 6 0 0
BITMAP
02AEFFFFFFF4
1C5101A00000
540000BFFFF1
540000900000
1B5101A00000
02AEFFFFFFF6
ENDCHAR
STARTCHAR oe
ENCODING 339
SWIDTH 1688 0
DWIDTH 15 0
BBX 15 6 0 0
BITMAP
02AEFEA22AEEC600
1C51026D93101640
54000007FFFFFF90
5400000770000000
1B51016DE7200000
02ADFEA33AEFFF30
ENDCHAR
STARTCHAR Racute
ENCODING 340
SWIDTH 833 0
DWIDTH 8 0
BBX 6 9 1 0
BITMAP
002900
009200
000000
FFFEC3
800148
FFFFC3
800270
800073
800009
ENDCHAR
STARTCHAR racute
ENCODING 341
SWIDTH 609 0
DWIDTH 5 0
BBX 5 9 1 0
BITMAP
005600
056000
000000
86CF70
E93010
900000
800000
800000
800000
ENDCHAR
STARTCHAR Rcommaaccent
ENCODING 342
SWIDTH 833 0
DWIDTH 8 0
BBX 6 9 1 -3
BITMAP
FFFEC3
800148
FFFFC3
800270
800073
800009
000000
008100
008000
ENDCHAR
STARTCHAR rcommaaccent
ENCODING 343
SWIDTH 609 0
DWIDTH 5 0
BBX 6 9 0 -3
BITMAP
086CF7
0E9301
090000
080000
080000
080000
000000
090000
170000
ENDCHAR
STARTCHAR Rcaron
ENCODING 344
SWIDTH 833 0
DWIDTH 8 0
BBX 6 9 1 0
BITMAP
150600
038100
000000
FFFEC3
800148
FFFFC3
800270
800073
800009
ENDCHAR
STARTCHAR rcaron
ENCODING 345
SWIDTH 609 0
DWIDTH 5 0
BBX 5 9 1 0
BITMAP
522500
066000
000000
86CF70
E93010
900000
800000
800000
800000
ENDCHAR
STARTCHAR Sacute
ENCODING 346
SWIDTH 787 0
DWIDTH 7 0
BBX 7 9 0 0
BITMAP
0001A000
00092000
00000000
09EFFD00
38100000
07CA6100
00025A20
00001750
4FFFE900
ENDCHAR
STARTCHAR sacute
ENCODING 347
SWIDTH 787 0
DWIDTH 7 0
BBX 7 9 0 0
BITMAP
0001A000
00092000
00000000
09EFFD00
38100000
07CA6100
00025A20
00001750
4FFFE900
ENDCHAR
STARTCHAR Scircumflex
ENCODING 348
SWIDTH 787 0
DWIDTH 7 0
BBX 7 9 0 0
BITMAP
00282000
01606100
00000000
09EFFD00
38100000
07CA6100
00025A20
00001750
4FFFE900
ENDCHAR
STARTCHAR scircumflex
ENCODING 349
SWIDTH 787 0
DWIDTH 7 0
BBX 7 9 0 0
BITMAP
00282000
01606100
00000000
09EFFD00
38100000
07CA6100
00025A20
00001750
4FFFE900
ENDCHAR
STARTCHAR Scedilla
ENCODING 350
SWIDTH 787 0
DWIDTH 7 0
BBX 7 8 0 -2
BITMAP
09EFFD00
38100000
07CA6100
00025A20
00001750
4FFFE900
000C6000
007F5000
ENDCHAR
STARTCHAR scedilla
ENCODING 351
SWIDTH 787 0
DWIDTH 7 0
BBX 7 8 0 -2
BITMAP
09EFFD00
38100000
07CA6100
00025A20
00001750
4FFFE900
000C6000
007F5000
ENDCHAR
STARTCHAR Scaron
ENCODING 352
SWIDTH 787 0
DWIDTH 7 0
BBX 7 9 0 0
BITMAP
01606100
00282000
00000000
09EFFD00
38100000
07CA6100
00025A20
00001750
4FFFE900
ENDCHAR
STARTCHAR scaron
ENCODING 353
SWIDTH 787 0
DWIDTH 7 0
BBX 7 9 0 0
BITMAP
01606100
00282000
00000000
09EFFD00
38100000
07CA6100
00025A20
00001750
4FFFE900
ENDCHAR
STARTCHAR Tcommaaccent
ENCODING 354
SWIDTH 708 0
DWIDTH 6 0
BBX 7 9 0 -3
BITMAP
CFFFFF30
00170000
00170000
00170000
00170000
00170000
00000000
00270000
00350000
ENDCHAR
STARTCHAR tcommaaccent
ENCODING 355
SWIDTH 708 0
DWIDTH 6 0
BBX 7 9 0 -3
BITMAP
CFFFFF30
00170000
00170000
00170000
00170000
00170000
00000000
00270000
00350000
ENDCHAR
STARTCHAR Tcaron
ENCODING 356
SWIDTH 708 0
DWIDTH 6 0
BBX 7 9 0 0
BITMAP
03316000
00570000
00000000
CFFFFF30
00170000
00170000
00170000
00170000
00170000
ENDCHAR
STARTCHAR tcaron
ENCODING 357
SWIDTH 708 0
DWIDTH 6 0
BBX 7 9 0 0
BITMAP
03316000
00570000
00000000
CFFFFF30
00170000
00170000
00170000
00170000
00170000
ENDCHAR
STARTCHAR Tbar
ENCODING 358
SWIDTH 708 0
DWIDTH 6 0
BBX 7 6 0 0
BITMAP
CFFFFF30
00170000
3FFFF900
00170000
00170000
00170000
ENDCHAR
STARTCHAR tbar
ENCODING 359
SWIDTH 708 0
DWIDTH 6 0
BBX 7 6 0 0
BITMAP
CFFFFF30
00170000
3FFFF900
00170000
00170000
00170000
ENDCHAR
STARTCHAR Utilde
ENCODING 360
SWIDTH 891 0
DWIDTH 8 0
BBX 7 8 1 0
BITMAP
05FF6000
00000000
80000710
80000710
80000710
80000810
C4114C00
4CEEC400
ENDCHAR
STARTCHAR utilde
ENCODING 361
SWIDTH 931 0
DWIDTH 8 0
BBX 7 8 1 0
BITMAP
03FF8000
00000000
80000350
80000350
80000350
80000350
B2027D50
5DFD8450
ENDCHAR
STARTCHAR Umacron
ENCODING 362
SWIDTH 891 0
DWIDTH 8 0
BBX 7 8 1 0
BITMAP
03FF3000
00000000
80000710
80000710
80000710
80000810
C4114C00
4CEEC400
ENDCHAR
STARTCHAR umacron
ENCODING 363
SWIDTH 931 0
DWIDTH 8 0
BBX 7 8 1 0
BITMAP
00FF6000
00000000
80000350
80000350
80000350
80000350
B2027D50
5DFD8450
ENDCHAR
STARTCHAR Ubreve
ENCODING 364
SWIDTH 891 0
DWIDTH 8 0
BBX 7 8 1 0
BITMAP
03EE4000
00000000
80000710
80000710
80000710
80000810
C4114C00
4CEEC400
ENDCHAR
STARTCHAR ubreve
ENCODING 365
SWIDTH 931 0
DWIDTH 8 0
BBX 7 8 1 0
BITMAP
02DE5000
00000000
80000350
80000350
80000350
80000350
B2027D50
5DFD8450
ENDCHAR
STARTCHAR Uring
ENCODING 366
SWIDTH 891 0
DWIDTH 8 0
BBX 7 9 1 0
BITMAP
01DD1000
01DD1000
00000000
80000710
80000710
80000710
80000810
C4114C00
4CEEC400
ENDCHAR
STARTCHAR uring
ENCODING 367
SWIDTH 931 0
DWIDTH 8 0
BBX 7 9 1 0
BITMAP
00BE2000
00BE2000
00000000
80000350
80000350
80000350
80000350
B2027D50
5DFD8450
ENDCHAR
STARTCHAR Uhungarumlaut
ENCODING 368
SWIDTH 891 0
DWIDTH 8 0
BBX 7 9 1 0
BITMAP
00638000
01762000
00000000
80000710
80000710
80000710
80000810
C4114C00
4CEEC400
ENDCHAR
STARTCHAR uhungarumlaut
ENCODING 369
SWIDTH 931 0
DWIDTH 8 0
BBX 7 9 1 0
BITMAP
00458000
00854000
00000000
80000350
80000350
80000350
80000350
B2027D50
5DFD8450
ENDCHAR
STARTCHAR Uogonek
ENCODING 370
SWIDTH 891 0
DWIDTH 8 0
BBX 7 8 1 -2
BITMAP
80000710
80000710
80000710
80000810
C4114C00
4CEFC400
00700000
00AF2000
ENDCHAR
STARTCHAR uogonek
ENCODING 371
SWIDTH 931 0
DWIDTH 8 0
BBX 7 8 1 -2
BITMAP
80000350
80000350
80000350
80000350
B2027D50
5DFD8450
00000600
00000CE0
ENDCHAR
STARTCHAR Wcircumflex
ENCODING 372
SWIDTH 1266 0
DWIDTH 11 0
BBX 11 9 0 0
BITMAP
000018300000
000060420000
000000000000
72000C400090
180045800270
090080810810
045180260800
009620095400
007A0006B000
ENDCHAR
STARTCHAR wcircumflex
ENCODING 373
SWIDTH 1266 0
DWIDTH 11 0
BBX 11 9 0 0
BITMAP
000018300000
000060420000
000000000000
72000C400090
180045800270
090080810810
045180260800
009620095400
007A0006B000
ENDCHAR
STARTCHAR Ycircumflex
ENCODING 374
SWIDTH 763 0
DWIDTH 7 0
BBX 7 9 0 0
BITMAP
00281000
01506000
00000000
47000830
07608500
009A7000
000A0000
00080000
00080000
ENDCHAR
STARTCHAR ycircumflex
ENCODING 375
SWIDTH 911 0
DWIDTH 8 0
BBX 8 9 0 0
BITMAP
00066000
00522400
00000000
35000063
36000073
1C3027D3
04CFD873
000015C1
3FFFEA30
ENDCHAR
STARTCHAR Ydieresis
ENCODING 376
SWIDTH 763 0
DWIDTH 7 0
BBX 7 8 0 0
BITMAP
00A0A000
00000000
47000830
07608500
009A7000
000A0000
00080000
00080000
ENDCHAR
STARTCHAR Zacute
ENCODING 377
SWIDTH 728 0
DWIDTH 7 0
BBX 6 9 0 0
BITMAP
000290
001910
000000
4FFFFC
000051
000510
004100
041000
4FFFFF
ENDCHAR
STARTCHAR zacute
ENCODING 378
SWIDTH 728 0
DWIDTH 7 0
BBX 6 9 0 0
BITMAP
000290
001910
000000
4FFFFC
000051
000510
004100
041000
4FFFFF
ENDCHAR
STARTCHAR Zdotaccent
ENCODING 379
SWIDTH 728 0
DWIDTH 7 0
BBX 6 8 0 0
BITMAP
000A00
000000
4FFFFC
000051
000510
004100
041000
4FFFFF
ENDCHAR
STARTCHAR zdotaccent
ENCODING 380
SWIDTH 728 0
DWIDTH 7 0
BBX 6 8 0 0
BITMAP
000A00
000000
4FFFFC
000051
000510
004100
041000
4FFFFF
ENDCHAR
STARTCHAR Zcaron
ENCODING 381
SWIDTH 728 0
DWIDTH 7 0
BBX 6 9 0 0
BITMAP
025060
003810
000000
4FFFFC
000051
000510
004100
041000
4FFFFF
ENDCHAR
STARTCHAR zcaron
ENCODING 382
SWIDTH 728 0
DWIDTH 7 0
BBX 6 9 0 0
BITMAP
025060
003810
000000
4FFFFC
000051
000510
004100
041000
4FFFFF
ENDCHAR
STARTCHAR florin
ENCODING 402
SWIDTH 835 0
DWIDTH 8 0
BBX 8 6 0 0
BITMAP
00006EF4
0000A100
009FFD00
00082000
003A0000
BFD30000
ENDCHAR
STARTCHAR AEacute
ENCODING 508
SWIDTH 1172 0
DWIDTH 11 0
BBX 10 9 0 0
BITMAP
0000000910
0000008300
0000000000
0004FFFFFC
001C560000
00943FFFF9
0470360000
1EFFF60000
94003FFFFD
ENDCHAR
STARTCHAR aeacute
ENCODING 509
SWIDTH 1551 0
DWIDTH 14 0
BBX 14 9 0 0
BITMAP
00000004700000
00000047000000
00000000000000
0DFFEC43BEEB30
000002A7210272
017ACEFFFFFFF6
2A632173000000
661014AD510000
1AEFDA43AEFFF0
ENDCHAR
STARTCHAR Oslashacute
ENCODING 510
SWIDTH 983 0
DWIDTH 9 0
BBX 9 10 0 -1
BITMAP
0000190000
0000920000
0000006300
02AEFDC100
1C51077B00
5400530630
5405400730
1C76016B00
02DEFD9100
0440000000
ENDCHAR
STARTCHAR oslashacute
ENCODING 511
SWIDTH 983 0
DWIDTH 9 0
BBX 9 10 0 -1
BITMAP
0000190000
0000920000
0000006300
02AEFDC100
1C51077B00
5400530630
5405400730
1C76016B00
02DEFD9100
0440000000
ENDCHAR
STARTCHAR dotlessj
ENCODING 567
SWIDTH 590 0
DWIDTH 5 0
BBX 5 6 0 0
BITMAP
000350
000350
000350
000350
001930
FFE800
ENDCHAR
STARTCHAR circumflex
ENCODING 710
SWIDTH 527 0
DWIDTH 5 0
BBX 4 2 0 5
BITMAP
0381
2506
ENDCHAR
STARTCHAR caron
ENCODING 711
SWIDTH 527 0
DWIDTH 5 0
BBX 4 2 0 5
BITMAP
2506
0381
ENDCHAR
STARTCHAR breve
ENCODING 728
SWIDTH 527 0
DWIDTH 5 0
BBX 3 1 1 5
BITMAP
BE80
ENDCHAR
STARTCHAR dotaccent
ENCODING 729
SWIDTH 527 0
DWIDTH 5 0
BBX 1 1 2 5
BITMAP
A0
ENDCHAR
STARTCHAR ring
ENCODING 730
SWIDTH 527 0
DWIDTH 5 0
BBX 3 2 1 5
BITMAP
8E50
8E50
ENDCHAR
STARTCHAR ogonek
ENCODING 731
SWIDTH 527 0
DWIDTH 5 0
BBX 3 2 1 -2
BITMAP
4200
7F50
ENDCHAR
STARTCHAR tilde
ENCODING 732
SWIDTH 527 0
DWIDTH 5 0
BBX 4 1 0 5
BITMAP
1EFB
ENDCHAR
STARTCHAR hungarumlaut
ENCODING 733
SWIDTH 527 0
DWIDTH 5 0
BBX 4 2 1 5
BITMAP
2771
7360
ENDCHAR
STARTCHAR commaaccent
ENCODING 806
SWIDTH 527 0
DWIDTH 5 0
BBX 1 2 2 -3
BITMAP
90
70
ENDCHAR
STARTCHAR mu
ENCODING 956
SWIDTH 705 0
DWIDTH 6 0
BBX 6 6 0 -2
BITMAP
080036
070063
1A13D0
3AEB90
620000
800000
ENDCHAR
STARTCHAR Wgrave
ENCODING 7808
SWIDTH 1266 0
DWIDTH 11 0
BBX 11 9 0 0
BITMAP
000092000000
000019200000
000000000000
72000C400090
180045800270
090080810810
045180260800
009620095400
007A0006B000
ENDCHAR
STARTCHAR wgrave
ENCODING 7809
SWIDTH 1266 0
DWIDTH 11 0
BBX 11 9 0 0
BITMAP
000092000000
000019200000
000000000000
72000C400090
180045800270
090080810810
045180260800
009620095400
007A0006B000
ENDCHAR
STARTCHAR Wacute
ENCODING 7810
SWIDTH 1266 0
DWIDTH 11 0
BBX 11 9 0 0
BITMAP
000000920000
000008300000
000000000000
72000C400090
180045800270
090080810810
045180260800
009620095400
007A0006B000
ENDCHAR
STARTCHAR wacute
ENCODING 7811
SWIDTH 1266 0
DWIDTH 11 0
BBX 11 9 0 0
BITMAP
000000920000
000008300000
000000000000
72000C400090
180045800270
090080810810
045180260800
009620095400
007A0006B000
ENDCHAR
STARTCHAR Wdieresis
ENCODING 7812
SWIDTH 1266 0
DWIDTH 11 0
BBX 11 8 0 0
BITMAP
000082A00000
000000000000
72000C400090
180045800270
090080810810
045180260800
009620095400
007A0006B000
ENDCHAR
STARTCHAR wdieresis
ENCODING 7813
SWIDTH 1266 0
DWIDTH 11 0
BBX 11 8 0 0
BITMAP
000082A00000
000000000000
72000C400090
180045800270
090080810810
045180260800
009620095400
007A0006B000
ENDCHAR
STARTCHAR Ygrave
ENCODING 7922
SWIDTH 763 0
DWIDTH 7 0
BBX 7 9 0 0
BITMAP
00A10000
00290000
00000000
47000830
07608500
009A7000
000A0000
00080000
00080000
ENDCHAR
STARTCHAR ygrave
ENCODING 7923
SWIDTH 911 0
DWIDTH 8 0
BBX 8 9 0 0
BITMAP
00650000
00075000
00000000
35000063
36000073
1C3027D3
04CFD873
000015C1
3FFFEA30
ENDCHAR
STARTCHAR endash
ENCODING 8211
SWIDTH 419 0
DWIDTH 4 0
BBX 4 1 0 3
BITMAP
CFF9
ENDCHAR
STARTCHAR emdash
ENCODING 8212
SWIDTH 1000 0
DWIDTH 9 0
BBX 9 1 0 3
BITMAP
FFFFFFFFF0
ENDCHAR
STARTCHAR quoteleft
ENCODING 8216
SWIDTH 163 0
DWIDTH 1 0
BBX 2 2 0 4
BITMAP
52
90
ENDCHAR
STARTCHAR quoteright
ENCODING 8217
SWIDTH 163 0
DWIDTH 1 0
BBX 2 2 0 4
BITMAP
81
80
ENDCHAR
STARTCHAR quotesinglbase
ENCODING 8218
SWIDTH 163 0
DWIDTH 1 0
BBX 2 2 0 -1
BITMAP
81
80
ENDCHAR
STARTCHAR quotedblleft
ENCODING 8220
SWIDTH 303 0
DWIDTH 3 0
BBX 3 2 0 4
BITMAP
5460
9530
ENDCHAR
STARTCHAR quotedblright
ENCODING 8221
SWIDTH 303 0
DWIDTH 3 0
BBX 3 2 0 4
BITMAP
8550
8610
ENDCHAR
STARTCHAR quotedblbase
ENCODING 8222
SWIDTH 303 0
DWIDTH 3 0
BBX 3 2 0 -1
BITMAP
8550
8610
ENDCHAR
STARTCHAR dagger
ENCODING 8224
SWIDTH 500 0
DWIDTH 5 0
BBX 4 6 0 0
BITMAP
0080
0080
3FFA
0080
0080
0080
ENDCHAR
STARTCHAR daggerdbl
ENCODING 8225
SWIDTH 500 0
DWIDTH 5 0
BBX 4 6 0 0
BITMAP
0080
0080
3FFA
3FFA
0080
0080
ENDCHAR
STARTCHAR bullet
ENCODING 8226
SWIDTH 352 0
DWIDTH 3 0
BBX 3 2 0 2
BITMAP
2E40
2E40
ENDCHAR
STARTCHAR ellipsis
ENCODING 8230
SWIDTH 555 0
DWIDTH 5 0
BBX 5 1 0 0
BITMAP
83C380
ENDCHAR
STARTCHAR perthousand
ENCODING 8240
SWIDTH 1401 0
DWIDTH 13 0
BBX 13 6 0 0
BITMAP
2DE60170000000
731A0800000000
2DE67100000000
00064BE90BEA00
0045471A481920
02701BE90BEA00
ENDCHAR
STARTCHAR guilsinglleft
ENCODING 8249
SWIDTH 257 0
DWIDTH 2 0
BBX 2 3 0 2
BITMAP
18
82
18
ENDCHAR
STARTCHAR guilsinglright
ENCODING 8250
SWIDTH 257 0
DWIDTH 2 0
BBX 2 3 0 2
BITMAP
54
0A
54
ENDCHAR
STARTCHAR fraction
ENCODING 8260
SWIDTH 200 0
DWIDTH 2 0
BBX 6 6 -2 0
BITMAP
000053
000350
001700
008000
071000
630000
ENDCHAR
STARTCHAR Euro
ENCODING 8364
SWIDTH 833 0
DWIDTH 8 0
BBX 7 6 0 0
BITMAP
007DFFC0
07610000
AFFFF500
AFFFD000
07610000
008DFFC0
ENDCHAR
STARTCHAR trademark
ENCODING 8482
SWIDTH 773 0
DWIDTH 7 0
BBX 7 3 0 3
BITMAP
BF970910
06382810
06348510
ENDCHAR
STARTCHAR partialdiff
ENCODING 8706
SWIDTH 790 0
DWIDTH 7 0
BBX 7 6 0 0
BITMAP
00EFD800
00001850
06DFC680
48202860
66113A10
09EEB200
ENDCHAR
STARTCHAR minus
ENCODING 8722
SWIDTH 634 0
DWIDTH 6 0
BBX 5 1 0 3
BITMAP
4FFFE0
ENDCHAR
STARTCHAR uni2215
ENCODING 8725
SWIDTH 200 0
DWIDTH 2 0
BBX 6 6 -2 0
BITMAP
000053
000350
001700
008000
071000
630000
ENDCHAR
STARTCHAR approxequal
ENCODING 8776
SWIDTH 634 0
DWIDTH 6 0
BBX 5 4 0 2
BITMAP
1DB350
325DA0
1DB350
325DA0
ENDCHAR
STARTCHAR notequal
ENCODING 8800
SWIDTH 634 0
DWIDTH 6 0
BBX 5 5 0 1
BITMAP
000800
4FFFE0
006200
4FFFE0
017000
ENDCHAR
STARTCHAR lessequal
ENCODING 8804
SWIDTH 634 0
DWIDTH 6 0
BBX 5 6 0 0
BITMAP
0005B0
06C930
5C2000
06C930
0005B0
4FFFE0
ENDCHAR
STARTCHAR greaterequal
ENCODING 8805
SWIDTH 634 0
DWIDTH 6 0
BBX 5 6 0 0
BITMAP
4A3000
05BB40
0004E0
05BB40
4A3000
4FFFE0
ENDCHAR
STARTCHAR fi
ENCODING 64257
SWIDTH 1104 0
DWIDTH 10 0
BBX 8 6 1 0
BITMAP
4CEFFC08
C3100008
80000008
FFFFFB08
80000008
80000008
ENDCHAR
STARTCHAR fl
ENCODING 64258
SWIDTH 1527 0
DWIDTH 14 0
BBX 13 6 1 0
BITMAP
4CEFFC08000000
C3100008000000
80000008000000
FFFFFB08000000
80000008400000
80000002CFFFA0
ENDCHAR
STARTCHAR .notdef
ENCODING -1
SWIDTH 1000 0
DWIDTH 9 0
BBX 1 1 0 0
BITMAP
00
ENDCHAR
ENDFONT
